# Blender 4.4.3
# www.blender.org
mtllib Cheese.mtl
o Cheese_M_Krabby_Patty_0
v 48.495049 15.712597 47.282696
v 83.915405 13.550899 43.445496
v 44.559448 13.766104 81.817520
v 40.623898 11.819488 -113.879906
v 77.241272 4.264762 -111.209808
v 79.979843 11.604395 -75.507881
v -111.965790 -6.520279 -109.166710
v -74.705376 4.264739 -111.209808
v -114.061287 4.049654 -72.837776
v -116.799889 11.389201 39.608276
v -81.379555 13.550899 43.445477
v -77.443970 11.604406 77.980324
v -116.799889 11.389195 -37.135815
v -77.443947 11.604395 -75.507866
v -81.379547 13.550893 -40.973022
v 119.335815 11.389195 -37.135796
v 83.915428 13.550893 -40.973015
v 40.623859 11.819505 116.352394
v 79.979820 11.604406 77.980339
v 77.241249 4.264802 113.682289
v -38.088020 11.819505 116.352394
v -74.705399 4.264779 113.682289
v -114.061386 4.049673 75.310211
v -111.965790 -6.520247 111.639091
v 116.597214 4.049673 75.310234
v 114.501610 -6.520232 111.639091
v 119.335815 11.389300 39.608288
v 44.559486 13.765993 -79.345055
v 48.495068 15.712589 -44.810223
v -42.023602 13.765993 -79.345070
v -45.959202 15.712589 -44.810215
v -38.088001 11.819488 -113.879906
v -42.023621 13.766005 81.817513
v -45.959213 15.712597 47.282688
v 116.597214 4.049654 -72.837761
v 114.501709 -6.520272 -109.166611
v 47.325497 6.941303 46.142357
v 43.487358 4.012045 79.821976
v 81.868683 3.800273 42.400196
v 39.649269 1.082740 -111.029106
v 78.030579 0.870959 -73.607330
v 75.359825 -6.085671 -108.425110
v -109.161591 -16.508011 -106.432610
v -111.205185 -6.297445 -71.003357
v -72.823929 -6.085679 -108.425110
v -113.875992 0.659221 38.658016
v -75.494705 0.870985 76.079796
v -79.332825 3.800273 42.400185
v -113.875992 0.659192 -36.185543
v -79.332825 3.800252 -39.927734
v -75.494675 0.870959 -73.607330
v 116.411911 0.659207 -36.185535
v 81.868698 3.800267 -39.927715
v 39.649220 1.082772 113.501595
v 75.359802 -7.706687 110.897591
v 78.030548 0.870993 76.079803
v -37.113403 1.082772 113.501595
v -72.823959 -7.706702 110.897591
v -111.205292 -7.918474 73.475800
v -109.161591 -16.507973 108.904991
v 113.741112 -7.918474 73.475800
v 116.411911 0.659221 38.658016
v 111.697510 -16.507965 108.904991
v 43.487389 4.012018 -77.349518
v 47.325508 6.941296 -43.669895
v -40.951511 4.012018 -77.349518
v -37.113373 1.082748 -111.029106
v -44.789642 6.941296 -43.669903
v -40.951523 4.012045 79.821983
v -44.789661 6.941303 46.142376
v 113.741112 -7.918508 -71.003349
v 111.697510 -16.508003 -106.432510
v 129.205612 -2.946843 42.816006
v 126.238113 -12.477610 81.502441
v 129.411514 -5.657930 83.540672
v 132.454407 2.497173 43.871857
v 43.913818 -2.476217 125.975494
v 1.267911 0.874437 125.975494
v 1.267915 6.325884 129.143097
v 44.996727 2.975237 129.143097
v -41.377983 -2.476225 125.975494
v -81.056366 -12.242300 123.082191
v -83.146866 -5.418913 126.176292
v -42.460911 2.975207 129.143005
v 43.913837 -2.476259 -123.503006
v 83.592262 -10.441156 -120.609711
v 85.682755 -5.418940 -123.703804
v 44.996769 2.975164 -126.670609
v -121.431488 -22.021532 -118.395805
v -81.056351 -10.441164 -120.609711
v -83.146851 -5.418962 -123.703804
v -124.547287 -17.402315 -121.433609
v 129.205612 -2.946857 -40.343513
v 129.205612 0.403816 1.236247
v 132.454407 5.847839 1.236246
v 132.454407 2.497151 -41.399353
v -126.669785 -2.946864 -40.343533
v -123.702286 -10.676466 -79.029976
v -126.875687 -5.657958 -81.068230
v -129.918488 2.497144 -41.399384
v -41.377953 -2.476259 -123.503006
v 1.267942 0.874411 -123.503006
v 1.267946 6.325834 -126.670609
v -42.460873 2.975157 -126.670609
v -121.431587 -22.021490 120.868195
v -123.702286 -12.477617 81.502411
v -126.875687 -5.657938 83.540649
v -124.547287 -17.402273 123.906090
v -126.669785 -2.946843 42.815975
v -126.669785 0.403793 1.236228
v -129.918594 5.847816 1.236227
v -129.918594 2.497158 43.871826
v 123.967415 -22.021490 120.868195
v 83.592209 -12.242292 123.082191
v 85.682709 -5.418890 126.176292
v 127.083115 -17.402266 123.906090
v 126.238213 -12.477652 -79.029961
v 129.411606 -5.657958 -81.068184
v -121.431488 -22.021532 -118.395805
v -124.547287 -17.402315 -121.433609
v 123.967415 -22.021532 -118.395706
v 127.083214 -17.402300 -121.433609
v 132.454407 2.497173 43.871857
v 129.411514 -5.657930 83.540672
v 1.267915 6.325884 129.143097
v -42.460911 2.975207 129.143005
v 1.267911 14.835107 116.352394
v -126.875687 -5.657938 83.540649
v -129.918594 2.497158 43.871826
v -129.918594 5.847816 1.236227
v -116.799889 14.404800 1.236227
v 85.682709 -5.418890 126.176292
v 44.996727 2.975237 129.143097
v -83.146851 -5.418962 -123.703804
v -42.460873 2.975157 -126.670609
v -129.918488 2.497144 -41.399384
v -126.875687 -5.657958 -81.068230
v 132.454407 5.847839 1.236246
v 119.335709 14.404900 1.236261
v 1.267946 6.325834 -126.670609
v 1.267934 14.835090 -113.879906
v -83.146866 -5.418913 126.176292
v -124.547287 -17.402273 123.906090
v 127.083115 -17.402266 123.906090
v 44.996769 2.975164 -126.670609
v 85.682755 -5.418940 -123.703804
v 127.083214 -17.402300 -121.433609
v 129.411606 -5.657958 -81.068184
v -124.547287 -17.402315 -121.433609
v 132.454407 2.497151 -41.399353
v 123.967415 -22.021490 120.868195
v 126.238113 -12.477610 81.502441
v 1.267911 0.874437 125.975494
v 43.913818 -2.476217 125.975494
v 1.267923 4.098359 113.501595
v -123.702286 -12.477617 81.502411
v -121.431587 -22.021490 120.868195
v -126.669785 -2.946864 -40.343533
v -126.669785 0.403793 1.236228
v -113.875992 3.674797 1.236231
v 83.592209 -12.242292 123.082191
v -81.056351 -10.441164 -120.609711
v -121.431488 -22.021532 -118.395805
v 129.205612 0.403816 1.236247
v 129.205612 -2.946857 -40.343513
v 116.411911 3.674805 1.236231
v -123.702286 -10.676466 -79.029976
v 43.913837 -2.476259 -123.503006
v 1.267942 0.874411 -123.503006
v 1.267946 4.098319 -111.029106
v 129.205612 -2.946843 42.816006
v -81.056366 -12.242300 123.082191
v -41.377983 -2.476225 125.975494
v 123.967415 -22.021532 -118.395706
v 83.592262 -10.441156 -120.609711
v -126.669785 -2.946843 42.815975
v 126.238213 -12.477652 -79.029961
v -41.377953 -2.476259 -123.503006
v 83.915421 16.566498 1.236230
v -81.379547 16.566498 1.236223
v -45.959202 18.728195 1.236230
v 1.267929 18.728195 1.236230
v 48.495056 18.728195 1.236230
v 1.267925 18.728199 47.282688
v 1.267938 16.781588 -79.345070
v 1.267938 18.728191 -44.810223
v 1.267919 16.781599 81.817535
v 81.868698 6.815895 1.236231
v -79.332825 6.815895 1.236231
v -44.789642 9.956993 1.236239
v 1.267931 9.956993 1.236231
v 1.267926 9.956997 46.142376
v 47.325508 9.956993 1.236239
v 1.267938 7.027590 -77.349510
v 1.267940 9.956990 -43.669903
v 1.267930 7.027701 79.821983
vn 0.0719 0.9953 0.0651
vn 0.0695 0.9951 0.0708
vn 0.0606 0.9964 0.0590
vn 0.1475 0.9783 -0.1455
vn 0.2405 0.8939 -0.3784
vn 0.1216 0.9326 -0.3397
vn -0.3750 0.8948 -0.2422
vn -0.2405 0.8939 -0.3784
vn -0.3607 0.8581 -0.3654
vn -0.1475 0.9783 0.1455
vn -0.0695 0.9951 0.0708
vn -0.3381 0.9330 0.1234
vn -0.0695 0.9951 -0.0708
vn -0.1475 0.9783 -0.1455
vn -0.3381 0.9330 -0.1234
vn 0.0694 0.9951 -0.0708
vn 0.3381 0.9330 -0.1235
vn 0.2404 0.8939 0.3784
vn 0.1475 0.9783 0.1455
vn 0.1216 0.9326 0.3398
vn -0.2405 0.8939 0.3784
vn -0.1216 0.9326 0.3397
vn -0.3750 0.8948 0.2422
vn -0.3607 0.8581 0.3654
vn 0.3607 0.8581 0.3654
vn 0.3750 0.8948 0.2422
vn 0.3381 0.9330 0.1234
vn 0.0719 0.9953 -0.0651
vn 0.0606 0.9964 -0.0590
vn -0.0606 0.9964 -0.0590
vn -0.0719 0.9953 -0.0651
vn -0.1216 0.9326 -0.3397
vn -0.0719 0.9953 0.0651
vn -0.0606 0.9964 0.0590
vn 0.3750 0.8948 -0.2422
vn 0.3607 0.8581 -0.3654
vn -0.1023 -0.9907 -0.0894
vn -0.0900 -0.9910 -0.0987
vn -0.0783 -0.9939 -0.0771
vn -0.2428 -0.9471 0.2100
vn -0.1783 -0.9699 0.1657
vn -0.1261 -0.9746 0.1851
vn 0.2378 -0.9472 0.2151
vn 0.2152 -0.9469 0.2388
vn 0.2433 -0.9389 0.2433
vn 0.1023 -0.9907 -0.0894
vn 0.1838 -0.9658 -0.1828
vn 0.1883 -0.9718 -0.1423
vn 0.1617 -0.9738 0.1600
vn 0.1023 -0.9907 0.0894
vn 0.1860 -0.9742 0.1277
vn -0.1023 -0.9907 0.0894
vn -0.1882 -0.9718 0.1422
vn -0.1838 -0.9658 -0.1827
vn -0.2573 -0.9390 -0.2280
vn -0.1400 -0.9723 -0.1872
vn 0.2573 -0.9390 -0.2280
vn 0.1400 -0.9723 -0.1872
vn 0.2331 -0.9441 -0.2332
vn 0.2277 -0.9389 -0.2582
vn -0.1883 -0.9718 -0.1423
vn -0.2277 -0.9389 -0.2582
vn -0.2331 -0.9441 -0.2332
vn -0.0783 -0.9939 0.0771
vn -0.0900 -0.9910 0.0987
vn 0.1261 -0.9746 0.1850
vn 0.0900 -0.9910 0.0987
vn 0.0783 -0.9939 0.0771
vn 0.0783 -0.9939 -0.0771
vn 0.0900 -0.9910 -0.0987
vn -0.2591 -0.9412 0.2169
vn -0.2328 -0.9390 0.2532
vn 0.9470 0.2857 0.1469
vn 0.4383 -0.8773 -0.1956
vn 0.4430 -0.8855 -0.1400
vn 0.9597 0.2679 0.0850
vn -0.0001 0.2593 0.9658
vn -0.0000 -0.9151 0.4033
vn -0.1401 -0.8832 0.4475
vn 0.0838 0.2701 0.9592
vn -0.1441 0.2877 0.9468
vn 0.1957 -0.8747 0.4434
vn 0.1401 -0.8832 0.4475
vn -0.0839 0.2701 0.9592
vn 0.1368 0.2593 -0.9561
vn -0.2058 -0.8775 -0.4331
vn -0.1247 -0.8968 -0.4246
vn 0.0837 0.2551 -0.9633
vn -0.1367 0.2593 -0.9561
vn 0.2059 -0.8775 -0.4332
vn -0.2846 -0.9138 -0.2897
vn -0.7083 0.0083 -0.7059
vn 0.9658 0.2594 0.0001
vn 0.3994 -0.9168 -0.0000
vn 0.4430 -0.8855 0.1400
vn 0.9597 0.2679 -0.0849
vn -0.9564 0.2567 -0.1395
vn -0.4270 -0.8805 0.2057
vn -0.4197 -0.8991 0.1243
vn -0.9638 0.2526 -0.0849
vn 0.0001 0.2593 -0.9658
vn -0.0000 -0.9151 -0.4033
vn 0.1247 -0.8968 -0.4246
vn -0.0836 0.2552 -0.9633
vn -0.9470 0.2857 0.1469
vn -0.4383 -0.8773 -0.1956
vn -0.3228 -0.8877 0.3283
vn -0.7070 0.0630 0.7044
vn -0.9658 0.2594 -0.0001
vn -0.3994 -0.9168 -0.0000
vn -0.4430 -0.8855 -0.1400
vn -0.9597 0.2679 0.0849
vn 0.1440 0.2877 0.9468
vn -0.1957 -0.8747 0.4434
vn 0.3229 -0.8877 0.3283
vn 0.7070 0.0630 0.7044
vn 0.4383 -0.8773 0.1956
vn 0.9470 0.2857 -0.1469
vn -0.7084 0.0082 -0.7058
vn -0.2845 -0.9139 -0.2896
vn 0.7083 0.0365 -0.7050
vn 0.3000 -0.9011 -0.3132
vn 0.9470 0.2856 0.1469
vn 0.9597 0.2678 0.0849
vn -0.0838 0.2700 0.9592
vn -0.0000 0.2592 0.9658
vn -0.0000 0.9453 0.3262
vn -0.9597 0.2678 0.0849
vn -0.9470 0.2856 0.1468
vn -0.3242 0.9460 -0.0000
vn -0.9658 0.2594 -0.0000
vn 0.1440 0.2876 0.9469
vn -0.0837 0.2551 -0.9633
vn -0.1367 0.2592 -0.9561
vn -0.9564 0.2566 -0.1395
vn -0.9639 0.2525 -0.0849
vn 0.9658 0.2594 -0.0000
vn 0.3242 0.9460 -0.0000
vn -0.0000 0.9453 -0.3262
vn -0.0000 0.2592 -0.9658
vn -0.7070 0.0629 0.7044
vn -0.1440 0.2876 0.9469
vn 0.7070 0.0629 0.7044
vn 0.1367 0.2592 -0.9561
vn 0.9470 0.2856 -0.1468
vn 0.9597 0.2678 -0.0849
vn 0.3228 -0.8877 0.3284
vn -0.1401 -0.8832 0.4476
vn -0.0000 -0.9150 0.4034
vn -0.0000 -0.9839 -0.1786
vn -0.3229 -0.8877 0.3283
vn 0.1793 -0.9838 -0.0000
vn -0.3995 -0.9167 -0.0000
vn -0.4198 -0.8991 0.1243
vn -0.1957 -0.8747 0.4435
vn -0.2846 -0.9138 -0.2898
vn 0.3995 -0.9167 -0.0000
vn -0.1793 -0.9838 -0.0000
vn -0.0000 -0.9839 0.1786
vn -0.0000 -0.9150 -0.4034
vn -0.1246 -0.8968 -0.4246
vn 0.4430 -0.8855 -0.1399
vn 0.1400 -0.8832 0.4476
vn -0.2059 -0.8775 -0.4332
vn 0.3000 -0.9010 -0.3132
vn 0.1246 -0.8967 -0.4246
vn 0.0680 0.9977 -0.0000
vn -0.0507 0.9987 -0.0000
vn -0.0680 0.9977 -0.0000
vn 0.0507 0.9987 -0.0000
vn -0.0000 1.0000 -0.0000
vn -0.0000 0.9988 0.0487
vn -0.0000 0.9980 -0.0633
vn -0.0000 0.9988 -0.0487
vn -0.0000 0.9980 0.0633
vn -0.0993 -0.9951 -0.0000
vn 0.0993 -0.9951 -0.0000
vn 0.0667 -0.9978 -0.0000
vn -0.0000 -0.9979 -0.0651
vn -0.0000 -1.0000 -0.0000
vn -0.0667 -0.9978 -0.0000
vn -0.0000 -0.9979 0.0651
vn -0.0000 -0.9955 0.0952
vn -0.0000 -0.9955 -0.0952
vt 0.342299 0.169092
vt 0.371638 0.199208
vt 0.368735 0.172082
vt 0.462710 0.196296
vt 0.490757 0.194680
vt 0.491923 0.166030
vt 0.461155 0.046948
vt 0.490757 0.077331
vt 0.490326 0.047428
vt 0.345118 0.075715
vt 0.371638 0.072803
vt 0.374619 0.045712
vt 0.436190 0.072803
vt 0.462710 0.075715
vt 0.433210 0.045712
vt 0.436190 0.199208
vt 0.433210 0.226299
vt 0.317071 0.194680
vt 0.345118 0.196296
vt 0.315906 0.166030
vt 0.317071 0.077331
vt 0.315906 0.105981
vt 0.346673 0.046948
vt 0.317503 0.047428
vt 0.317503 0.224583
vt 0.346673 0.225063
vt 0.374619 0.226299
vt 0.465529 0.169092
vt 0.439093 0.172082
vt 0.439093 0.099929
vt 0.465529 0.102919
vt 0.491923 0.105981
vt 0.342299 0.102919
vt 0.368735 0.099929
vt 0.461155 0.225063
vt 0.490326 0.224583
vt 0.568048 0.070603
vt 0.539379 0.100024
vt 0.565267 0.097165
vt 0.684449 0.074985
vt 0.657167 0.073408
vt 0.685805 0.102948
vt 0.684451 0.189850
vt 0.655641 0.219409
vt 0.683924 0.218845
vt 0.568044 0.194220
vt 0.542108 0.191404
vt 0.570878 0.220811
vt 0.657167 0.191424
vt 0.631217 0.194230
vt 0.628368 0.220818
vt 0.631222 0.070597
vt 0.628380 0.044007
vt 0.542112 0.073417
vt 0.514589 0.074729
vt 0.513466 0.102937
vt 0.514585 0.190090
vt 0.513464 0.161882
vt 0.515356 0.218813
vt 0.543365 0.219629
vt 0.570883 0.044012
vt 0.543371 0.045193
vt 0.515362 0.046007
vt 0.634004 0.097164
vt 0.659896 0.100027
vt 0.685806 0.161881
vt 0.659896 0.164803
vt 0.634002 0.167663
vt 0.565265 0.167658
vt 0.539376 0.164796
vt 0.683891 0.045973
vt 0.655894 0.045179
vt 0.471506 0.014920
vt 0.468381 0.005430
vt 0.436976 0.005430
vt 0.439875 0.014920
vt 0.603139 0.014920
vt 0.595952 0.005430
vt 0.564655 0.005430
vt 0.571077 0.014920
vt 0.658230 0.014920
vt 0.649117 0.005430
vt 0.624977 0.005430
vt 0.632929 0.014920
vt 0.320867 0.014920
vt 0.320895 0.005430
vt 0.314550 0.005430
vt 0.314211 0.014920
vt 0.321630 0.014920
vt 0.321638 0.005430
vt 0.330446 0.005430
vt 0.330734 0.014920
vt 0.408357 0.014920
vt 0.406210 0.005430
vt 0.377641 0.005430
vt 0.379035 0.014920
vt 0.687671 0.014920
vt 0.678377 0.005430
vt 0.685543 0.005430
vt 0.695170 0.014920
vt 0.312188 0.014920
vt 0.312522 0.005430
vt 0.314935 0.005430
vt 0.314606 0.014920
vt 0.691030 0.014920
vt 0.680430 0.005430
vt 0.673864 0.005430
vt 0.682962 0.014920
vt 0.698234 0.014920
vt 0.688586 0.005430
vt 0.687223 0.005430
vt 0.696892 0.014920
vt 0.538814 0.014920
vt 0.532615 0.005430
vt 0.500176 0.005430
vt 0.504820 0.014920
vt 0.353789 0.005430
vt 0.354049 0.014920
vt 0.678113 0.014920
vt 0.669127 0.005430
vt 0.329596 0.014920
vt 0.329337 0.005430
vt 0.339118 0.236619
vt 0.370647 0.238133
vt 0.304321 0.101931
vt 0.304416 0.136006
vt 0.316139 0.136006
vt 0.370647 0.033878
vt 0.339118 0.035392
vt 0.403914 0.045964
vt 0.403914 0.034003
vt 0.304321 0.170080
vt 0.305761 0.202395
vt 0.503508 0.101931
vt 0.502068 0.069616
vt 0.468711 0.035392
vt 0.437181 0.033878
vt 0.403914 0.238008
vt 0.403914 0.226047
vt 0.491690 0.136006
vt 0.503412 0.136006
vt 0.306407 0.036096
vt 0.305761 0.069616
vt 0.306407 0.235915
vt 0.502068 0.202395
vt 0.503508 0.170080
vt 0.468711 0.236619
vt 0.501422 0.235915
vt 0.501422 0.036096
vt 0.437181 0.238133
vt 0.536880 0.035211
vt 0.505725 0.036129
vt 0.503590 0.099502
vt 0.503829 0.132409
vt 0.513702 0.132409
vt 0.505718 0.228691
vt 0.536874 0.229610
vt 0.599626 0.220568
vt 0.599625 0.230689
vt 0.631719 0.230944
vt 0.504853 0.068077
vt 0.693551 0.228713
vt 0.694176 0.196471
vt 0.631730 0.033878
vt 0.599630 0.034136
vt 0.599631 0.044257
vt 0.662097 0.229381
vt 0.685569 0.132414
vt 0.695441 0.132414
vt 0.695679 0.099512
vt 0.567530 0.033884
vt 0.503587 0.165317
vt 0.504849 0.196742
vt 0.694168 0.068362
vt 0.693526 0.036099
vt 0.567524 0.230939
vt 0.662380 0.035193
vt 0.695679 0.165315
vt 0.403914 0.199040
vt 0.403914 0.100015
vt 0.403914 0.072971
vt 0.403914 0.171996
vt 0.403914 0.136006
vt 0.368822 0.136006
vt 0.465362 0.136006
vt 0.439006 0.136006
vt 0.342466 0.136006
vt 0.599634 0.070772
vt 0.599629 0.194053
vt 0.599632 0.167565
vt 0.565359 0.132411
vt 0.599634 0.132412
vt 0.599635 0.097260
vt 0.633911 0.132414
vt 0.659728 0.132414
vt 0.539542 0.132410
s 1
f 3/1/1 2/2/2 1/3/3
f 6/4/4 5/5/5 4/6/6
f 9/7/7 8/8/8 7/9/9
f 12/10/10 11/11/11 10/12/12
f 15/13/13 14/14/14 13/15/15
f 6/4/4 17/16/16 16/17/17
f 20/18/18 19/19/19 18/20/20
f 12/10/10 22/21/21 21/22/22
f 10/12/12 23/23/23 12/10/10
f 23/23/23 22/21/21 12/10/10
f 23/23/23 24/24/24 22/21/21
f 26/25/25 25/26/26 20/18/18
f 25/26/26 19/19/19 20/18/18
f 25/26/26 27/27/27 19/19/19
f 4/6/6 28/28/28 6/4/4
f 28/28/28 17/16/16 6/4/4
f 28/28/28 29/29/29 17/16/16
f 31/30/30 30/31/31 15/13/13
f 30/31/31 14/14/14 15/13/13
f 30/31/31 32/32/32 14/14/14
f 21/22/22 33/33/33 12/10/10
f 33/33/33 11/11/11 12/10/10
f 33/33/33 34/34/34 11/11/11
f 13/15/15 14/14/14 9/7/7
f 14/14/14 8/8/8 9/7/7
f 14/14/14 32/32/32 8/8/8
f 16/17/17 35/35/35 6/4/4
f 35/35/35 5/5/5 6/4/4
f 35/35/35 36/36/36 5/5/5
f 18/20/20 19/19/19 3/1/1
f 19/19/19 2/2/2 3/1/1
f 19/19/19 27/27/27 2/2/2
f 39/37/37 38/38/38 37/39/39
f 42/40/40 41/41/41 40/42/42
f 45/43/43 44/44/44 43/45/45
f 48/46/46 47/47/47 46/48/48
f 51/49/49 50/50/50 49/51/51
f 53/52/52 41/41/41 52/53/53
f 56/54/54 55/55/55 54/56/56
f 58/57/57 47/47/47 57/58/58
f 60/59/59 59/60/60 58/57/57
f 59/60/60 47/47/47 58/57/57
f 59/60/60 46/48/48 47/47/47
f 62/61/61 61/62/62 56/54/54
f 61/62/62 55/55/55 56/54/54
f 61/62/62 63/63/63 55/55/55
f 65/64/64 64/65/65 53/52/52
f 64/65/65 41/41/41 53/52/52
f 64/65/65 40/42/42 41/41/41
f 67/66/66 66/67/67 51/49/49
f 66/67/67 50/50/50 51/49/49
f 66/67/67 68/68/68 50/50/50
f 70/69/69 69/70/70 48/46/46
f 69/70/70 47/47/47 48/46/46
f 69/70/70 57/58/58 47/47/47
f 67/66/66 51/49/49 45/43/43
f 51/49/49 44/44/44 45/43/43
f 51/49/49 49/51/51 44/44/44
f 72/71/71 71/72/72 42/40/40
f 71/72/72 41/41/41 42/40/40
f 71/72/72 52/53/53 41/41/41
f 62/61/61 56/54/54 39/37/37
f 56/54/54 38/38/38 39/37/37
f 56/54/54 54/56/56 38/38/38
f 75/73/73 74/74/74 73/75/75
f 76/76/76 75/73/73 73/75/75
f 79/77/77 78/78/78 77/79/79
f 80/80/80 79/77/77 77/79/79
f 83/81/81 82/82/82 81/83/83
f 84/84/84 83/81/81 81/83/83
f 87/85/85 86/86/86 85/87/87
f 88/88/88 87/85/85 85/87/87
f 91/89/89 90/90/90 89/91/91
f 92/92/92 91/89/89 89/91/91
f 95/93/93 94/94/94 93/95/95
f 96/96/96 95/93/93 93/95/95
f 99/97/97 98/98/98 97/99/99
f 100/100/100 99/97/97 97/99/99
f 103/101/101 102/102/102 101/103/103
f 104/104/104 103/101/101 101/103/103
f 107/105/105 106/106/106 105/107/107
f 108/108/108 107/105/105 105/107/107
f 111/109/109 110/110/110 109/111/111
f 112/112/112 111/109/109 109/111/111
f 115/113/113 114/114/114 113/115/115
f 116/116/116 115/113/113 113/115/115
f 96/96/96 93/95/95 117/117/117
f 118/118/118 96/96/96 117/117/117
f 80/80/80 77/79/79 114/114/114
f 115/113/113 80/80/80 114/114/114
f 100/100/100 97/99/99 110/110/110
f 111/109/109 100/100/100 110/110/110
f 112/112/112 109/111/111 106/106/106
f 107/105/105 112/112/112 106/106/106
f 88/88/88 85/87/87 102/102/102
f 103/101/101 88/88/88 102/102/102
f 120/119/119 119/120/120 98/98/98
f 99/97/97 120/119/119 98/98/98
f 76/76/76 73/75/75 94/94/94
f 95/93/93 76/76/76 94/94/94
f 104/104/104 101/103/103 90/90/90
f 91/89/89 104/104/104 90/90/90
f 122/121/121 121/122/122 86/86/86
f 87/85/85 122/121/121 86/86/86
f 108/108/108 105/107/107 82/82/82
f 83/81/81 108/108/108 82/82/82
f 84/84/84 81/83/83 78/78/78
f 79/77/77 84/84/84 78/78/78
f 116/116/116 113/115/115 74/74/74
f 75/73/73 116/116/116 74/74/74
f 25/26/26 124/123/123 123/124/124
f 27/27/27 25/26/26 123/124/124
f 21/22/22 126/125/125 125/126/126
f 127/127/127 21/22/22 125/126/126
f 10/12/12 129/128/128 128/129/129
f 23/23/23 10/12/12 128/129/129
f 131/130/130 130/131/131 129/128/128
f 10/12/12 131/130/130 129/128/128
f 18/20/20 133/132/80 132/133/132
f 20/18/18 18/20/20 132/133/132
f 32/32/32 135/134/133 134/135/134
f 8/8/8 32/32/32 134/135/134
f 9/7/7 137/136/135 136/137/136
f 13/15/15 9/7/7 136/137/136
f 27/27/27 123/124/124 138/138/137
f 139/139/138 27/27/27 138/138/137
f 141/140/139 140/141/140 135/134/133
f 32/32/32 141/140/139 135/134/133
f 24/24/24 143/142/141 142/143/142
f 22/21/21 24/24/24 142/143/142
f 26/25/25 144/144/143 124/123/123
f 25/26/26 26/25/25 124/123/123
f 5/5/5 146/145/144 145/146/88
f 4/6/6 5/5/5 145/146/88
f 127/127/127 125/126/126 133/132/80
f 18/20/20 127/127/127 133/132/80
f 35/35/35 148/147/145 147/148/121
f 36/36/36 35/35/35 147/148/121
f 13/15/15 136/137/136 130/131/131
f 131/130/130 13/15/15 130/131/131
f 20/18/18 132/133/132 144/144/143
f 26/25/25 20/18/18 144/144/143
f 23/23/23 128/129/129 143/142/141
f 24/24/24 23/23/23 143/142/141
f 7/9/9 149/149/119 137/136/135
f 9/7/7 7/9/9 137/136/135
f 4/6/6 145/146/88 140/141/140
f 141/140/139 4/6/6 140/141/140
f 8/8/8 134/135/134 149/149/119
f 7/9/9 8/8/8 149/149/119
f 22/21/21 142/143/142 126/125/125
f 21/22/22 22/21/21 126/125/125
f 139/139/138 138/138/137 150/150/146
f 16/17/17 139/139/138 150/150/146
f 36/36/36 147/148/121 146/145/144
f 5/5/5 36/36/36 146/145/144
f 16/17/17 150/150/146 148/147/145
f 35/35/35 16/17/17 148/147/145
f 61/62/62 152/151/74 151/152/147
f 63/63/63 61/62/62 151/152/147
f 54/56/56 154/153/148 153/154/149
f 155/155/150 54/56/56 153/154/149
f 60/59/59 157/156/151 156/157/106
f 59/60/60 60/59/59 156/157/106
f 160/158/152 159/159/153 158/160/154
f 49/51/51 160/158/152 158/160/154
f 63/63/63 151/152/147 161/161/155
f 55/55/55 63/63/63 161/161/155
f 43/45/45 163/162/156 162/163/90
f 45/43/43 43/45/45 162/163/90
f 52/53/53 165/164/95 164/165/157
f 166/166/158 52/53/53 164/165/157
f 44/44/44 167/167/98 163/162/156
f 43/45/45 44/44/44 163/162/156
f 170/168/159 169/169/160 168/170/161
f 40/42/42 170/168/159 168/170/161
f 62/61/61 171/171/162 152/151/74
f 61/62/62 62/61/61 152/151/74
f 57/58/58 173/172/163 172/173/82
f 58/57/57 57/58/58 172/173/82
f 155/155/150 153/154/149 173/172/163
f 57/58/58 155/155/150 173/172/163
f 42/40/40 175/174/164 174/175/165
f 72/71/71 42/40/40 174/175/165
f 46/48/48 176/176/111 159/159/153
f 160/158/152 46/48/48 159/159/153
f 71/72/72 177/177/117 165/164/95
f 52/53/53 71/72/72 165/164/95
f 55/55/55 161/161/155 154/153/148
f 54/56/56 55/55/55 154/153/148
f 49/51/51 158/160/154 167/167/98
f 44/44/44 49/51/51 167/167/98
f 59/60/60 156/157/106 176/176/111
f 46/48/48 59/60/60 176/176/111
f 67/66/66 178/178/166 169/169/160
f 170/168/159 67/66/66 169/169/160
f 45/43/43 162/163/90 178/178/166
f 67/66/66 45/43/43 178/178/166
f 58/57/57 172/173/82 157/156/151
f 60/59/59 58/57/57 157/156/151
f 40/42/42 168/170/161 175/174/164
f 42/40/40 40/42/42 175/174/164
f 166/166/158 164/165/157 171/171/162
f 62/61/61 166/166/158 171/171/162
f 72/71/71 174/175/165 177/177/117
f 71/72/72 72/71/71 177/177/117
f 118/118/118 117/117/117 121/122/122
f 122/121/121 118/118/118 121/122/122
f 27/27/27 139/139/138 179/179/167
f 2/2/2 27/27/27 179/179/167
f 34/34/34 181/180/168 180/181/169
f 11/11/11 34/34/34 180/181/169
f 1/3/3 183/182/170 182/183/171
f 184/184/172 1/3/3 182/183/171
f 29/29/29 28/28/28 185/185/173
f 186/186/174 29/29/29 185/185/173
f 18/20/20 3/1/1 187/187/175
f 127/127/127 18/20/20 187/187/175
f 127/127/127 187/187/175 33/33/33
f 21/22/22 127/127/127 33/33/33
f 187/187/175 184/184/172 34/34/34
f 33/33/33 187/187/175 34/34/34
f 3/1/1 1/3/3 184/184/172
f 187/187/175 3/1/1 184/184/172
f 186/186/174 185/185/173 30/31/31
f 31/30/30 186/186/174 30/31/31
f 185/185/173 141/140/139 32/32/32
f 30/31/31 185/185/173 32/32/32
f 28/28/28 4/6/6 141/140/139
f 185/185/173 28/28/28 141/140/139
f 184/184/172 182/183/171 181/180/168
f 34/34/34 184/184/172 181/180/168
f 182/183/171 186/186/174 31/30/30
f 181/180/168 182/183/171 31/30/30
f 183/182/170 29/29/29 186/186/174
f 182/183/171 183/182/170 186/186/174
f 11/11/11 180/181/169 131/130/130
f 10/12/12 11/11/11 131/130/130
f 180/181/169 15/13/13 13/15/15
f 131/130/130 180/181/169 13/15/15
f 181/180/168 31/30/30 15/13/13
f 180/181/169 181/180/168 15/13/13
f 2/2/2 179/179/167 183/182/170
f 1/3/3 2/2/2 183/182/170
f 179/179/167 17/16/16 29/29/29
f 183/182/170 179/179/167 29/29/29
f 139/139/138 16/17/17 17/16/16
f 179/179/167 139/139/138 17/16/16
f 62/61/61 39/37/37 188/188/176
f 166/166/158 62/61/61 188/188/176
f 70/69/69 48/46/46 189/189/177
f 190/190/178 70/69/69 189/189/177
f 37/39/39 192/191/179 191/192/180
f 193/193/181 37/39/39 191/192/180
f 65/64/64 195/194/182 194/195/183
f 64/65/65 65/64/64 194/195/183
f 54/56/56 155/155/150 196/196/184
f 38/38/38 54/56/56 196/196/184
f 38/38/38 196/196/184 192/191/179
f 37/39/39 38/38/38 192/191/179
f 196/196/184 69/70/70 70/69/69
f 192/191/179 196/196/184 70/69/69
f 155/155/150 57/58/58 69/70/70
f 196/196/184 155/155/150 69/70/70
f 64/65/65 194/195/183 170/168/159
f 40/42/42 64/65/65 170/168/159
f 194/195/183 66/67/67 67/66/66
f 170/168/159 194/195/183 67/66/66
f 195/194/182 68/68/68 66/67/67
f 194/195/183 195/194/182 66/67/67
f 193/193/181 191/192/180 195/194/182
f 65/64/64 193/193/181 195/194/182
f 191/192/180 190/190/178 68/68/68
f 195/194/182 191/192/180 68/68/68
f 192/191/179 70/69/69 190/190/178
f 191/192/180 192/191/179 190/190/178
f 190/190/178 189/189/177 50/50/50
f 68/68/68 190/190/178 50/50/50
f 189/189/177 160/158/152 49/51/51
f 50/50/50 189/189/177 49/51/51
f 48/46/46 46/48/48 160/158/152
f 189/189/177 48/46/46 160/158/152
f 166/166/158 188/188/176 53/52/52
f 52/53/53 166/166/158 53/52/52
f 188/188/176 193/193/181 65/64/64
f 53/52/52 188/188/176 65/64/64
f 39/37/37 37/39/39 193/193/181
f 188/188/176 39/37/37 193/193/181
